<svg width="32" height="32" viewBox="0 0 32 32" fill="none" xmlns="http://www.w3.org/2000/svg">
<g clip-path="url(#clip0_608_745)">
<path d="M3.92999 15.564C4.71099 15.529 4.79199 15.115 4.80299 14.771C4.80299 14.495 4.76799 14.185 4.74399 13.875C4.71099 13.565 4.67699 13.254 4.67699 12.969C4.67699 11.889 5.35399 11.418 6.42199 11.418H6.82399V12.395H6.61599C6.09899 12.406 5.91699 12.705 5.91699 13.209C5.91699 13.416 5.93799 13.623 5.97299 13.864C5.99699 14.093 6.03199 14.357 6.03199 14.655C6.04299 15.516 5.68799 15.849 5.04599 15.987V16.01C5.68899 16.137 6.04299 16.469 6.03199 17.342C6.03199 17.641 5.99799 17.903 5.97299 18.145C5.93899 18.374 5.91699 18.592 5.91699 18.79C5.91699 19.295 6.08799 19.604 6.61599 19.616H6.82399V20.581H6.40899C5.38799 20.581 4.67699 20.166 4.67699 19.019C4.67699 18.734 4.71099 18.421 4.74399 18.113C4.76699 17.803 4.80299 17.507 4.80299 17.217C4.80299 16.907 4.72299 16.472 3.92999 16.437V15.564V15.564Z" fill="#919191"/>
<path d="M28.07 16.436C27.289 16.471 27.208 16.885 27.197 17.228C27.197 17.504 27.232 17.814 27.256 18.124C27.289 18.435 27.323 18.745 27.323 19.03C27.323 20.11 26.646 20.581 25.578 20.581H25.176V19.604H25.384C25.901 19.592 26.083 19.293 26.083 18.79C26.083 18.583 26.062 18.375 26.027 18.135C26.003 17.906 25.967 17.642 25.967 17.345C25.956 16.483 26.312 16.15 26.953 16.012V15.99C26.309 15.863 25.956 15.531 25.967 14.658C25.967 14.36 26.001 14.096 26.027 13.855C26.06 13.626 26.083 13.408 26.083 13.211C26.083 12.706 25.912 12.397 25.384 12.385H25.176V11.42H25.591C26.612 11.42 27.323 11.835 27.323 12.982C27.323 13.268 27.289 13.579 27.256 13.888C27.233 14.198 27.197 14.495 27.197 14.784C27.197 15.094 27.277 15.529 28.07 15.564V16.436V16.436Z" fill="#919191"/>
<path d="M8 13.883C8 13.446 8.12 13.091 8.362 12.815C8.602 12.538 8.928 12.402 9.34 12.402C9.75 12.402 10.077 12.536 10.322 12.807C10.566 13.077 10.688 13.444 10.688 13.904V14.262C10.688 14.705 10.567 15.062 10.324 15.329C10.082 15.6 9.757 15.732 9.35 15.732C8.945 15.732 8.62 15.599 8.372 15.329C8.125 15.062 8 14.695 8 14.232V13.883ZM8.906 14.262C8.906 14.458 8.947 14.616 9.032 14.733C9.116 14.849 9.22 14.907 9.35 14.907C9.48 14.907 9.583 14.847 9.661 14.725C9.74 14.604 9.778 14.444 9.778 14.247V13.883C9.778 13.692 9.739 13.535 9.66 13.414C9.58 13.289 9.473 13.227 9.34 13.227C9.207 13.227 9.104 13.289 9.025 13.414C8.946 13.535 8.907 13.697 8.907 13.896L8.906 14.262ZM9.601 19.137L8.942 18.762L11.88 13.158L12.546 13.533L9.601 19.137ZM10.826 17.914C10.826 17.473 10.949 17.116 11.195 16.846C11.442 16.575 11.767 16.438 12.171 16.438C12.578 16.438 12.904 16.573 13.15 16.839C13.396 17.108 13.519 17.475 13.519 17.94V18.3C13.519 18.739 13.4 19.094 13.16 19.364C12.92 19.635 12.595 19.771 12.181 19.771C11.763 19.771 11.434 19.633 11.192 19.363C10.948 19.09 10.827 18.73 10.827 18.279L10.826 17.914ZM11.737 18.3C11.737 18.485 11.781 18.639 11.868 18.762C11.956 18.887 12.058 18.95 12.18 18.95C12.452 18.95 12.595 18.756 12.609 18.363V17.915C12.609 17.723 12.569 17.566 12.488 17.445C12.408 17.326 12.301 17.265 12.171 17.265C11.882 17.265 11.737 17.517 11.737 18.019V18.3Z" fill="#919191"/>
<path d="M18.48 13.883C18.48 13.446 18.599 13.091 18.84 12.815C19.081 12.538 19.406 12.402 19.818 12.402C20.228 12.402 20.556 12.536 20.8 12.807C21.044 13.077 21.166 13.444 21.166 13.904V14.262C21.166 14.705 21.046 15.062 20.804 15.329C20.56 15.6 20.236 15.732 19.827 15.732C19.424 15.732 19.098 15.599 18.848 15.329C18.602 15.061 18.477 14.695 18.477 14.232V13.883H18.48ZM19.387 14.262C19.387 14.458 19.428 14.616 19.512 14.733C19.596 14.849 19.7 14.907 19.829 14.907C19.96 14.907 20.064 14.847 20.141 14.725C20.218 14.604 20.256 14.444 20.256 14.247V13.883C20.256 13.692 20.218 13.535 20.139 13.414C20.061 13.289 19.953 13.227 19.819 13.227C19.688 13.227 19.584 13.289 19.505 13.414C19.427 13.535 19.388 13.697 19.388 13.896V14.262H19.387ZM20.08 19.137L19.42 18.762L22.359 13.158L23.023 13.533L20.08 19.137ZM21.307 17.914C21.307 17.473 21.43 17.116 21.676 16.846C21.922 16.575 22.246 16.438 22.651 16.438C23.059 16.438 23.384 16.573 23.631 16.839C23.877 17.107 24 17.475 24 17.939V18.298C24 18.737 23.881 19.092 23.641 19.362C23.401 19.633 23.075 19.77 22.662 19.77C22.245 19.77 21.916 19.631 21.673 19.36C21.431 19.088 21.308 18.727 21.308 18.276V17.914H21.307ZM22.218 18.3C22.218 18.485 22.26 18.639 22.348 18.762C22.436 18.887 22.538 18.95 22.66 18.95C22.931 18.95 23.076 18.756 23.09 18.363V17.915C23.09 17.723 23.048 17.566 22.968 17.445C22.889 17.326 22.782 17.265 22.651 17.265C22.362 17.265 22.218 17.517 22.218 18.019V18.3Z" fill="#919191"/>
<path d="M32 32H0V0H32V32ZM2 30H30V2H2V30Z" fill="#919191"/>
</g>
<defs>
<clipPath id="clip0_608_745">
<rect width="32" height="32" fill="white"/>
</clipPath>
</defs>
</svg>
