<svg width="32" height="32" viewBox="0 0 32 32" fill="none" xmlns="http://www.w3.org/2000/svg">
<g clip-path="url(#clip0_608_659)">
<path d="M31.984 32H-0.0159912V0H31.984V32ZM1.98401 30H29.984V2H1.98401V30Z" fill="#919191"/>
<path d="M11.529 13.569L11.279 12.395H11.219C10.808 12.914 10.398 13.262 9.98901 13.445C9.58101 13.63 9.06901 13.72 8.45801 13.72C7.63901 13.72 6.99801 13.51 6.53301 13.088C6.07101 12.667 5.83801 12.067 5.83801 11.29C5.83801 9.62301 7.17001 8.74901 9.83501 8.67001L11.235 8.62501V8.11201C11.235 7.46501 11.095 6.98501 10.818 6.67701C10.539 6.36701 10.093 6.21501 9.48301 6.21501C8.79501 6.21501 8.01601 6.42501 7.14901 6.84701L6.76301 5.89001C7.16901 5.67101 7.61601 5.49701 8.09901 5.37201C8.58501 5.24601 9.06901 5.18301 9.55701 5.18301C10.54 5.18301 11.27 5.40201 11.742 5.83901C12.218 6.27601 12.453 6.97501 12.453 7.93901V13.57H11.529V13.569ZM8.70601 12.689C9.48401 12.689 10.096 12.476 10.539 12.048C10.984 11.622 11.205 11.024 11.205 10.256V9.51201L9.95401 9.56401C8.96101 9.60001 8.24401 9.75301 7.80601 10.026C7.36801 10.301 7.14701 10.725 7.14701 11.303C7.14701 11.755 7.28301 12.099 7.55601 12.334C7.83201 12.572 8.21501 12.689 8.70601 12.689Z" fill="#919191"/>
<path d="M11.529 25.316L11.279 24.141H11.219C10.808 24.661 10.398 25.008 9.98898 25.191C9.57998 25.376 9.06797 25.466 8.45697 25.466C7.63797 25.466 6.99697 25.255 6.53197 24.833C6.06997 24.412 5.83698 23.812 5.83698 23.035C5.83698 21.368 7.16898 20.495 9.83398 20.415L11.234 20.37V19.858C11.234 19.211 11.094 18.73 10.817 18.422C10.538 18.112 10.092 17.96 9.48198 17.96C8.79398 17.96 8.01497 18.171 7.14797 18.592L6.76197 17.635C7.16897 17.416 7.61397 17.241 8.09797 17.116C8.58397 16.99 9.06797 16.926 9.55597 16.926C10.539 16.926 11.269 17.145 11.741 17.583C12.217 18.019 12.453 18.719 12.453 19.683V25.314L11.529 25.316ZM8.70598 24.437C9.48398 24.437 10.096 24.224 10.539 23.795C10.984 23.369 11.205 22.772 11.205 22.004V21.259L9.95497 21.311C8.96097 21.348 8.24397 21.5 7.80597 21.773C7.36797 22.048 7.14698 22.472 7.14698 23.05C7.14698 23.502 7.28297 23.846 7.55597 24.08C7.83197 24.318 8.21498 24.437 8.70598 24.437Z" fill="#919191"/>
<path d="M5.13 26.86V26.092H13.704V26.86H5.13Z" fill="#919191"/>
<path d="M23.249 16.914C23.709 16.914 24.122 17.039 24.483 17.286C24.844 17.536 25.125 17.892 25.327 18.359H25.408L25.914 17.064H26.869L25.116 25.316H24.113L24.309 23.744H24.248C23.352 24.892 22.404 25.467 21.411 25.467C20.712 25.467 20.166 25.218 19.769 24.722C19.372 24.225 19.173 23.546 19.173 22.679C19.173 21.637 19.352 20.669 19.709 19.773C20.063 18.88 20.556 18.179 21.185 17.674C21.812 17.168 22.5 16.914 23.249 16.914ZM21.818 24.421C22.304 24.421 22.789 24.189 23.27 23.725C23.75 23.259 24.143 22.655 24.444 21.91C24.744 21.166 24.895 20.418 24.895 19.671C24.895 19.154 24.755 18.743 24.472 18.436C24.193 18.131 23.823 17.978 23.367 17.978C22.845 17.978 22.358 18.193 21.912 18.625C21.463 19.056 21.108 19.641 20.853 20.378C20.597 21.116 20.467 21.895 20.467 22.712C20.467 23.285 20.585 23.712 20.821 23.996C21.059 24.279 21.39 24.421 21.818 24.421Z" fill="#919191"/>
<path d="M24.849 13.73L24.406 12.586H24.345C23.958 13.071 23.56 13.41 23.152 13.599C22.743 13.787 22.21 13.881 21.551 13.881C20.744 13.881 20.108 13.649 19.643 13.188C19.179 12.726 18.947 12.067 18.947 11.216C18.947 10.32 19.26 9.66301 19.885 9.23801C20.511 8.81401 21.454 8.58001 22.711 8.53401L24.172 8.48901V8.12101C24.172 7.27001 23.735 6.84101 22.861 6.84101C22.191 6.84101 21.399 7.04601 20.492 7.45201L19.729 5.90001C20.7 5.39201 21.773 5.13901 22.952 5.13901C24.081 5.13901 24.949 5.38701 25.551 5.87701C26.154 6.36901 26.454 7.11801 26.454 8.12001V13.73H24.849ZM24.172 9.83001L23.283 9.86001C22.616 9.88001 22.12 10 21.792 10.221C21.467 10.44 21.305 10.778 21.305 11.23C21.305 11.877 21.675 12.2 22.419 12.2C22.95 12.2 23.376 12.047 23.694 11.742C24.012 11.435 24.172 11.028 24.172 10.523V9.83001V9.83001Z" fill="#919191"/>
</g>
<defs>
<clipPath id="clip0_608_659">
<rect width="32" height="32" fill="white"/>
</clipPath>
</defs>
</svg>
