<svg width="32" height="32" viewBox="0 0 32 32" fill="none" xmlns="http://www.w3.org/2000/svg">
<path d="M29.648 25.814H2.351C1.082 25.814 0.0509949 24.783 0.0509949 23.513V8.485C0.0509949 7.217 1.083 6.185 2.351 6.185H29.648C30.917 6.185 31.949 7.217 31.949 8.485V23.513C31.949 24.783 30.917 25.814 29.648 25.814ZM2.351 7.719C1.929 7.719 1.58399 8.064 1.58399 8.486V23.514C1.58399 23.938 1.928 24.282 2.351 24.282H29.648C30.071 24.282 30.416 23.938 30.416 23.514V8.485C30.416 8.063 30.071 7.718 29.648 7.718H2.351V7.719Z" fill="#919191"/>
<path d="M4.651 21.214V10.786H7.718L10.785 14.62L13.852 10.786H16.919V21.214H13.852V15.234L10.785 19.068L7.718 15.234V21.214H4.651Z" fill="#919191"/>
<path d="M23.668 21.367L19.067 16H22.134V10.786H25.2V16H28.267L23.668 21.367Z" fill="#919191"/>
</svg>
