<svg width="32" height="32" viewBox="0 0 32 32" fill="none" xmlns="http://www.w3.org/2000/svg">
<path d="M14 11H4V1H14V11ZM6 9H12V3H6V9Z" fill="#919191"/>
<path d="M14 12H4V13H14V12Z" fill="#919191"/>
<path d="M9 14H4V15H9V14Z" fill="#919191"/>
<path d="M14 27H4V17H14V27ZM6 25H12V19H6V25Z" fill="#919191"/>
<path d="M14 28H4V29H14V28Z" fill="#919191"/>
<path d="M9 30H4V31H9V30Z" fill="#919191"/>
<path d="M28 11H18V1H28V11ZM20 9H26V3H20V9Z" fill="#919191"/>
<path d="M28 12H18V13H28V12Z" fill="#919191"/>
<path d="M23 14H18V15H23V14Z" fill="#919191"/>
<path d="M28 27H18V17H28V27ZM20 25H26V19H20V25Z" fill="#919191"/>
<path d="M28 28H18V29H28V28Z" fill="#919191"/>
<path d="M23 30H18V31H23V30Z" fill="#919191"/>
</svg>
