<svg width="32" height="32" viewBox="0 0 32 32" fill="none" xmlns="http://www.w3.org/2000/svg">
<g clip-path="url(#clip0_608_688)">
<path d="M23 20H9V6H23V20ZM11 18H21V8H11V18Z" fill="#919191"/>
<path d="M7 20H0V18H5V8H0V6H7V20Z" fill="#919191"/>
<path d="M32 20H25V6H32V8H27V18H32V20Z" fill="#919191"/>
<path d="M23 22H9V23H23V22Z" fill="#919191"/>
<path d="M16 25H9V26H16V25Z" fill="#919191"/>
<path d="M3.30999 10.502L1.07199 12.74L3.30999 14.978C3.34499 15.012 3.36699 15.065 3.36699 15.11C3.36699 15.155 3.34599 15.206 3.30999 15.24L3.02599 15.526C2.99099 15.559 2.93999 15.583 2.89399 15.583C2.84799 15.583 2.79699 15.56 2.76199 15.526L0.107995 12.872C0.0749949 12.837 0.0509949 12.786 0.0509949 12.74C0.0509949 12.694 0.0739949 12.643 0.107995 12.608L2.76199 9.954C2.79699 9.921 2.84799 9.897 2.89399 9.897C2.93999 9.897 2.98999 9.921 3.02499 9.955L3.30899 10.241C3.34399 10.275 3.36599 10.32 3.36599 10.371C3.36599 10.416 3.34499 10.468 3.30999 10.502Z" fill="#919191"/>
<path d="M28.69 15.248L30.928 13.01L28.69 10.772C28.655 10.738 28.633 10.685 28.633 10.64C28.633 10.595 28.654 10.544 28.69 10.51L28.974 10.224C29.009 10.191 29.06 10.167 29.106 10.167C29.152 10.167 29.203 10.19 29.238 10.224L31.892 12.878C31.925 12.913 31.949 12.964 31.949 13.01C31.949 13.056 31.926 13.107 31.892 13.142L29.238 15.796C29.203 15.829 29.152 15.853 29.106 15.853C29.06 15.853 29.009 15.83 28.974 15.796L28.69 15.51C28.655 15.476 28.633 15.431 28.633 15.38C28.634 15.334 28.655 15.282 28.69 15.248Z" fill="#919191"/>
</g>
<defs>
<clipPath id="clip0_608_688">
<rect width="32" height="32" fill="white"/>
</clipPath>
</defs>
</svg>
