<svg width="32" height="32" viewBox="0 0 32 32" fill="none" xmlns="http://www.w3.org/2000/svg">
<g clip-path="url(#clip0_608_338)">
<path d="M7 2H10V0H7V2ZM12 2H15V0H12V2ZM17 2H20V0H17V2ZM22 2H25V0H22V2ZM7 32H10V30H7V32ZM12 32H15V30H12V32ZM17 32H20V30H17V32ZM22 32H25V30H22V32ZM2 22H0V25H2V22ZM2 17H0V20H2V17ZM2 12H0V15H2V12ZM2 7H0V10H2V7ZM30 25H32V22H30V25ZM30 20H32V17H30V20ZM30 15H32V12H30V15ZM30 10H32V7H30V10ZM0 5H2V2H5V0H0V5ZM27 0V2H30V5H32V0H27ZM30 30H27V32H32V27H30V30ZM2 27H0V32H5V30H2V27Z" fill="#919191"/>
</g>
<defs>
<clipPath id="clip0_608_338">
<rect width="32" height="32" fill="white"/>
</clipPath>
</defs>
</svg>
