<svg width="32" height="32" viewBox="0 0 32 32" fill="none" xmlns="http://www.w3.org/2000/svg">
<g clip-path="url(#clip0_608_342)">
<path d="M2 27H0V32H3V30H2V27ZM5 2H6V5H8V0H5V2ZM2 22H0V25H2V22ZM2 17H0V20H2V17ZM2 12H0V15H2V12ZM2 7H0V10H2V7ZM6 25H8V22H6V25ZM6 20H8V17H6V20ZM6 15H8V12H6V15ZM6 10H8V7H6V10ZM14 22H12V25H14V22ZM14 17H12V20H14V17ZM14 12H12V15H14V12ZM14 7H12V10H14V7ZM18 25H20V22H18V25ZM18 20H20V17H18V20ZM18 15H20V12H18V15ZM18 10H20V7H18V10ZM26 22H24V25H26V22ZM26 17H24V20H26V17ZM26 12H24V15H26V12ZM26 7H24V10H26V7ZM30 25H32V22H30V25ZM30 20H32V17H30V20ZM30 15H32V12H30V15ZM30 10H32V7H30V10ZM6 30H5V32H8V27H6V30ZM0 5H2V2H3V0H0V5ZM14 27H12V32H15V30H14V27ZM18 30H17V32H20V27H18V30ZM12 5H14V2H15V0H12V5ZM17 2H18V5H20V0H17V2ZM30 30H29V32H32V27H30V30ZM26 27H24V32H27V30H26V27ZM24 5H26V2H27V0H24V5ZM29 0V2H30V5H32V0H29Z" fill="#919191"/>
</g>
<defs>
<clipPath id="clip0_608_342">
<rect width="32" height="32" fill="white"/>
</clipPath>
</defs>
</svg>
