<svg width="32" height="32" viewBox="0 0 32 32" fill="none" xmlns="http://www.w3.org/2000/svg">
<g clip-path="url(#clip0_608_583)">
<path d="M31.984 32H-0.0159912V0H31.984V32ZM1.98401 30H29.984V2H1.98401V30Z" fill="#919191"/>
<path d="M15.984 6.142C11.972 6.142 8.72101 9.395 8.72101 13.406C8.72101 17.418 15.984 25.859 15.984 25.859C15.984 25.859 23.248 17.418 23.248 13.407C23.248 9.396 19.996 6.142 15.984 6.142ZM15.984 15.739C14.695 15.739 13.649 14.694 13.649 13.405C13.649 12.116 14.695 11.071 15.984 11.071C17.273 11.071 18.319 12.116 18.319 13.405C18.319 14.694 17.273 15.739 15.984 15.739Z" fill="#919191"/>
</g>
<defs>
<clipPath id="clip0_608_583">
<rect width="32" height="32" fill="white"/>
</clipPath>
</defs>
</svg>
