<svg width="32" height="32" viewBox="0 0 32 32" fill="none" xmlns="http://www.w3.org/2000/svg">
<path d="M29.648 25.814H2.351C1.082 25.814 0.0509949 24.783 0.0509949 23.513V8.485C0.0509949 7.217 1.083 6.185 2.351 6.185H29.648C30.917 6.185 31.949 7.217 31.949 8.485V23.514C31.949 24.783 30.917 25.814 29.648 25.814ZM2.351 7.719C1.929 7.719 1.58399 8.064 1.58399 8.486V23.514C1.58399 23.938 1.928 24.283 2.351 24.283H29.648C30.07 24.283 30.416 23.938 30.416 23.514V8.485C30.416 8.063 30.07 7.718 29.648 7.718L2.351 7.719Z" fill="#919191"/>
<path d="M4.52701 18.805V13.117H6.52001C7.20901 13.117 7.73301 13.249 8.09001 13.513C8.44601 13.777 8.62501 14.164 8.62501 14.675C8.62501 14.953 8.55301 15.198 8.41001 15.411C8.26601 15.623 8.06701 15.778 7.81201 15.878C8.10301 15.95 8.33301 16.098 8.50101 16.319C8.66901 16.54 8.75301 16.811 8.75301 17.131C8.75301 17.678 8.57801 18.092 8.23001 18.373C7.88001 18.654 7.38301 18.797 6.73801 18.803H4.52701V18.805ZM5.69901 15.5H6.56601C7.15701 15.489 7.45301 15.254 7.45301 14.793C7.45301 14.535 7.37801 14.35 7.22801 14.236C7.07801 14.123 6.84101 14.066 6.51901 14.066H5.69901V15.5ZM5.69901 16.328V17.863H6.70301C6.97801 17.863 7.19401 17.797 7.34901 17.666C7.50301 17.535 7.58101 17.354 7.58101 17.121C7.58101 16.6 7.31101 16.336 6.77201 16.328H5.69901Z" fill="#919191"/>
<path d="M12.09 18.375C11.811 18.713 11.426 18.883 10.934 18.883C10.481 18.883 10.135 18.752 9.89701 18.492C9.65901 18.232 9.53701 17.849 9.53201 17.347V14.577H10.661V17.31C10.661 17.75 10.861 17.971 11.263 17.971C11.646 17.971 11.909 17.838 12.052 17.573V14.577H13.185V18.804H12.123L12.09 18.375Z" fill="#919191"/>
<path d="M15.387 13.539V14.578H16.11V15.406H15.387V17.515C15.387 17.671 15.416 17.783 15.477 17.851C15.536 17.919 15.651 17.953 15.821 17.953C15.946 17.953 16.055 17.943 16.153 17.926V18.781C15.93 18.849 15.704 18.883 15.469 18.883C14.676 18.883 14.274 18.483 14.258 17.684V15.407H13.641V14.579H14.258V13.54H15.387V13.539Z" fill="#919191"/>
<path d="M18.09 13.539V14.578H18.813V15.406H18.09V17.515C18.09 17.671 18.12 17.783 18.18 17.851C18.24 17.919 18.355 17.953 18.524 17.953C18.649 17.953 18.759 17.943 18.856 17.926V18.781C18.634 18.849 18.407 18.883 18.172 18.883C17.38 18.883 16.977 18.483 16.961 17.684V15.407H16.344V14.579H16.961V13.54H18.09V13.539Z" fill="#919191"/>
<path d="M19.148 16.652C19.148 16.232 19.229 15.859 19.39 15.531C19.551 15.203 19.784 14.949 20.087 14.769C20.39 14.589 20.742 14.499 21.144 14.499C21.714 14.499 22.18 14.673 22.54 15.022C22.9 15.371 23.102 15.844 23.144 16.444L23.152 16.733C23.152 17.381 22.971 17.901 22.609 18.294C22.247 18.687 21.761 18.882 21.152 18.882C20.543 18.882 20.056 18.687 19.693 18.296C19.33 17.905 19.148 17.374 19.148 16.702V16.652V16.652ZM20.277 16.732C20.277 17.134 20.352 17.441 20.504 17.654C20.655 17.866 20.871 17.972 21.152 17.972C21.425 17.972 21.639 17.867 21.793 17.658C21.946 17.447 22.023 17.111 22.023 16.65C22.023 16.255 21.946 15.951 21.793 15.734C21.64 15.518 21.423 15.41 21.145 15.41C20.869 15.41 20.656 15.517 20.504 15.732C20.353 15.948 20.277 16.281 20.277 16.732Z" fill="#919191"/>
<path d="M24.887 14.578L24.922 15.066C25.224 14.688 25.629 14.5 26.137 14.5C26.585 14.5 26.918 14.631 27.137 14.895C27.356 15.158 27.468 15.551 27.473 16.075V18.805H26.344V16.095C26.344 15.856 26.292 15.681 26.188 15.573C26.084 15.465 25.911 15.411 25.668 15.411C25.351 15.411 25.112 15.547 24.953 15.818V18.805H23.824V14.578H24.887Z" fill="#919191"/>
</svg>
