<svg width="32" height="32" viewBox="0 0 32 32" fill="none" xmlns="http://www.w3.org/2000/svg">
<path d="M2 5H4V2H7V0H2V5ZM9 2H12V5H14V0H9V2ZM12 30H9V32H14V27H12V30ZM4 27H2V32H7V30H4V27ZM18 5H20V2H23V0H18V5ZM25 0V2H28V5H30V0H25ZM28 30H25V32H30V27H28V30ZM20 27H18V32H23V30H20V27ZM4 22H2V25H4V22ZM4 17H2V20H4V17ZM4 12H2V15H4V12ZM4 7H2V10H4V7ZM12 25H14V22H12V25ZM12 20H14V17H12V20ZM12 15H14V12H12V15ZM12 10H14V7H12V10ZM20 22H18V25H20V22ZM20 17H18V20H20V17ZM20 12H18V15H20V12ZM20 7H18V10H20V7ZM28 25H30V22H28V25ZM28 20H30V17H28V20ZM28 15H30V12H28V15ZM28 10H30V7H28V10Z" fill="#919191"/>
</svg>
