<svg width="32" height="32" viewBox="0 0 32 32" fill="none" xmlns="http://www.w3.org/2000/svg">
<path d="M32 28H0V4H32V28ZM2 26H30V6H2V26Z" fill="#919191"/>
<path d="M8.935 12.888L6.302 15.521L8.935 18.154C8.976 18.193 9.001 18.256 9.001 18.308C9.001 18.359 8.976 18.42 8.935 18.459L8.6 18.797C8.56 18.836 8.499 18.863 8.446 18.863C8.393 18.863 8.331 18.836 8.291 18.797L5.17 15.675C5.13 15.635 5.103 15.574 5.103 15.521C5.103 15.468 5.13 15.407 5.17 15.367L8.291 12.246C8.331 12.206 8.392 12.179 8.445 12.179C8.498 12.179 8.559 12.206 8.599 12.246L8.934 12.581C8.976 12.621 9.001 12.674 9.001 12.734C9.001 12.788 8.976 12.848 8.935 12.888Z" fill="#919191"/>
<path d="M23.066 18.154L25.699 15.521L23.066 12.888C23.025 12.848 23 12.787 23 12.734C23 12.681 23.025 12.621 23.066 12.581L23.4 12.246C23.441 12.206 23.502 12.179 23.554 12.179C23.605 12.179 23.668 12.206 23.707 12.246L26.828 15.367C26.869 15.407 26.893 15.468 26.893 15.521C26.893 15.574 26.869 15.635 26.828 15.675L23.707 18.797C23.668 18.836 23.604 18.863 23.554 18.863C23.501 18.863 23.441 18.836 23.4 18.797L23.066 18.461C23.025 18.422 23 18.367 23 18.309C23 18.254 23.025 18.193 23.066 18.154Z" fill="#919191"/>
</svg>
