<svg width="32" height="32" viewBox="0 0 32 32" fill="none" xmlns="http://www.w3.org/2000/svg">
<path d="M1 5H3V2H5V5H7V0H1V5ZM5 30H3V27H1V32H7V27H5V30ZM9 5H11V2H13V5H15V0H9V5ZM3 22H1V25H3V22ZM3 17H1V20H3V17ZM3 12H1V15H3V12ZM3 7H1V10H3V7ZM5 25H7V22H5V25ZM5 20H7V17H5V20ZM5 15H7V12H5V15ZM5 10H7V7H5V10ZM11 22H9V25H11V22ZM11 17H9V20H11V17ZM11 12H9V15H11V12ZM11 7H9V10H11V7ZM13 25H15V22H13V25ZM13 20H15V17H13V20ZM13 15H15V12H13V15ZM13 10H15V7H13V10ZM19 22H17V25H19V22ZM19 17H17V20H19V17ZM19 12H17V15H19V12ZM19 7H17V10H19V7ZM21 25H23V22H21V25ZM21 20H23V17H21V20ZM21 15H23V12H21V15ZM21 10H23V7H21V10ZM27 22H25V25H27V22ZM27 17H25V20H27V17ZM27 12H25V15H27V12ZM27 7H25V10H27V7ZM29 25H31V22H29V25ZM29 20H31V17H29V20ZM29 15H31V12H29V15ZM29 10H31V7H29V10ZM13 30H11V27H9V32H15V27H13V30ZM17 5H19V2H21V5H23V0H17V5ZM21 30H19V27H17V32H23V27H21V30ZM25 0V5H27V2H29V5H31V0H25ZM29 30H27V27H25V32H31V27H29V30Z" fill="#919191"/>
</svg>
