<svg width="32" height="32" viewBox="0 0 32 32" fill="none" xmlns="http://www.w3.org/2000/svg">
<path d="M9 9H1V1H9V9ZM3 7H7V3H3V7Z" fill="#919191"/>
<path d="M20 9H12V1H20V9ZM14 7H18V3H14V7Z" fill="#919191"/>
<path d="M31 9H23V1H31V9ZM25 7H29V3H25V7Z" fill="#919191"/>
<path d="M9 20H1V12H9V20ZM3 18H7V14H3V18Z" fill="#919191"/>
<path d="M20 20H12V12H20V20ZM14 18H18V14H14V18Z" fill="#919191"/>
<path d="M31 20H23V12H31V20ZM25 18H29V14H25V18Z" fill="#919191"/>
<path d="M9 31H1V23H9V31ZM3 29H7V25H3V29Z" fill="#919191"/>
<path d="M20 31H12V23H20V31ZM14 29H18V25H14V29Z" fill="#919191"/>
<path d="M31 31H23V23H31V31ZM25 29H29V25H25V29Z" fill="#919191"/>
</svg>
